<svg width="32" height="32" viewBox="0 0 32 32" fill="none" xmlns="http://www.w3.org/2000/svg">
<rect width="32" height="32" fill="white"/>
<path d="M8.0086 18.8042H11.4906C11.5594 19.4095 11.8259 19.9614 12.2902 20.4599C12.7716 20.9407 13.3992 21.3234 14.173 21.6083C14.9468 21.8754 15.8152 22.0089 16.7781 22.0089C17.655 22.0089 18.3772 21.911 18.9447 21.7151C19.5121 21.5193 19.9334 21.2433 20.2085 20.8872C20.4836 20.5312 20.6212 20.1039 20.6212 19.6053C20.6212 19.1246 20.4492 18.7596 20.1053 18.5104C19.7614 18.2433 19.2198 18.0297 18.4804 17.8694C17.741 17.6914 16.7695 17.5134 15.5658 17.3353C14.6201 17.1929 13.726 16.997 12.8834 16.7478C12.0408 16.4807 11.2929 16.1424 10.6394 15.7329C10.0032 15.3234 9.49597 14.8249 9.11768 14.2374C8.75658 13.632 8.57603 12.9199 8.57603 12.1009C8.57603 11.0861 8.85116 10.1958 9.4014 9.43027C9.96883 8.66469 10.8028 8.06825 11.9033 7.64095C13.0038 7.21365 14.3536 7 15.9527 7C18.36 7 20.2085 7.53412 21.4981 8.60237C22.8049 9.65282 23.4412 11.1039 23.4068 12.9555H20.0537C19.985 11.905 19.5551 11.1484 18.7641 10.6855C17.9903 10.2226 17.0102 9.9911 15.8238 9.9911C14.7233 9.9911 13.8119 10.1602 13.0897 10.4985C12.3847 10.8368 12.0322 11.4154 12.0322 12.2344C12.0322 12.5549 12.1182 12.8398 12.2902 13.089C12.4621 13.3205 12.7544 13.5252 13.1671 13.7033C13.5798 13.8813 14.1386 14.0504 14.8436 14.2107C15.5486 14.3709 16.4256 14.5312 17.4745 14.6914C18.4546 14.8338 19.3401 15.0297 20.1311 15.2789C20.9393 15.5104 21.6271 15.822 22.1945 16.2137C22.7792 16.5875 23.2262 17.0682 23.5357 17.6558C23.8452 18.2433 24 18.9644 24 19.819C24 20.8694 23.7335 21.7864 23.2004 22.5697C22.6846 23.3353 21.8764 23.9318 20.7759 24.3591C19.6926 24.7864 18.2826 25 16.5459 25C15.3079 25 14.216 24.8665 13.2703 24.5994C12.3246 24.3145 11.5078 23.9407 10.82 23.4777C10.1322 23.0148 9.57335 22.5074 9.14347 21.9555C8.71359 21.4036 8.40408 20.8516 8.21494 20.2997C8.04299 19.7478 7.97421 19.2493 8.0086 18.8042Z" fill="#5700EF"/>
</svg>
