<svg width="394" height="60" viewBox="0 0 394 60" fill="none" xmlns="http://www.w3.org/2000/svg">
<path d="M0.131695 31.614H9.0417C9.2177 33.11 9.8997 34.474 11.0877 35.706C12.3197 36.894 13.9257 37.84 15.9057 38.544C17.8857 39.204 20.1077 39.534 22.5717 39.534C24.8157 39.534 26.6637 39.292 28.1157 38.808C29.5677 38.324 30.6457 37.642 31.3497 36.762C32.0537 35.882 32.4057 34.826 32.4057 33.594C32.4057 32.406 31.9657 31.504 31.0857 30.888C30.2057 30.228 28.8197 29.7 26.9277 29.304C25.0357 28.864 22.5497 28.424 19.4697 27.984C17.0497 27.632 14.7617 27.148 12.6057 26.532C10.4497 25.872 8.5357 25.036 6.8637 24.024C5.2357 23.012 3.9377 21.78 2.9697 20.328C2.0457 18.832 1.5837 17.072 1.5837 15.048C1.5837 12.54 2.2877 10.34 3.6957 8.44795C5.1477 6.55595 7.2817 5.08195 10.0977 4.02595C12.9137 2.96995 16.3677 2.44195 20.4597 2.44195C26.6197 2.44195 31.3497 3.76195 34.6497 6.40195C37.9937 8.99795 39.6217 12.584 39.5337 17.16H30.9537C30.7777 14.564 29.6777 12.694 27.6537 11.55C25.6737 10.406 23.1657 9.83395 20.1297 9.83395C17.3137 9.83395 14.9817 10.252 13.1337 11.088C11.3297 11.9239 10.4277 13.354 10.4277 15.378C10.4277 16.17 10.6477 16.874 11.0877 17.49C11.5277 18.062 12.2757 18.568 13.3317 19.008C14.3877 19.448 15.8177 19.866 17.6217 20.262C19.4257 20.658 21.6697 21.054 24.3537 21.45C26.8617 21.802 29.1277 22.286 31.1517 22.902C33.2197 23.474 34.9797 24.244 36.4317 25.212C37.9277 26.136 39.0717 27.324 39.8637 28.776C40.6557 30.228 41.0517 32.01 41.0517 34.122C41.0517 36.718 40.3697 38.984 39.0057 40.92C37.6857 42.812 35.6177 44.286 32.8017 45.342C30.0297 46.398 26.4217 46.926 21.9777 46.926C18.8097 46.926 16.0157 46.596 13.5957 45.936C11.1757 45.232 9.0857 44.308 7.3257 43.164C5.5657 42.02 4.1357 40.766 3.0357 39.402C1.9357 38.038 1.1437 36.674 0.659696 35.31C0.219695 33.946 0.0436954 32.714 0.131695 31.614ZM85.6239 46.002H77.0439V13.2H85.6239V46.002ZM77.5059 30.228L77.5719 32.472C77.4839 33.088 77.2639 33.99 76.9119 35.178C76.5599 36.322 76.0099 37.554 75.2619 38.874C74.5579 40.194 73.6339 41.47 72.4899 42.702C71.3459 43.89 69.9379 44.88 68.2659 45.672C66.5939 46.42 64.6139 46.794 62.3259 46.794C60.5219 46.794 58.7399 46.574 56.9799 46.134C55.2639 45.694 53.7019 44.968 52.2939 43.956C50.8859 42.9 49.7639 41.492 48.9279 39.732C48.0919 37.972 47.6739 35.75 47.6739 33.066V13.2H56.2539V31.614C56.2539 33.726 56.5839 35.398 57.2439 36.63C57.9479 37.818 58.9599 38.654 60.2799 39.138C61.5999 39.622 63.1619 39.864 64.9659 39.864C67.3419 39.864 69.3879 39.358 71.1039 38.346C72.8199 37.29 74.2059 36.014 75.2619 34.518C76.3619 33.022 77.1099 31.592 77.5059 30.228ZM115.018 21.252V14.718H131.452V21.252H115.018ZM124.126 14.718H132.706V46.002H124.126V14.718ZM98.5176 46.002V11.4179L107.098 12.474V46.002H98.5176ZM111.19 -4.86374e-05H132.706V6.92995H113.236C111.96 6.88595 110.86 7.01795 109.936 7.32595C109.012 7.63395 108.308 8.20595 107.824 9.04195C107.34 9.83395 107.098 10.978 107.098 12.474L98.5176 11.4179C98.5176 8.77795 99.0016 6.62195 99.9696 4.94995C100.938 3.23395 102.368 1.97995 104.26 1.18795C106.152 0.395952 108.462 -4.86374e-05 111.19 -4.86374e-05ZM91.1256 14.718H117.526V21.252H91.1256V14.718ZM137.581 13.2H146.689L160.879 44.682L153.487 46.002L137.581 13.2ZM177.709 13.2L155.005 59.202H146.095L155.797 41.118L168.535 13.2H177.709ZM197.193 46.728C193.937 46.728 190.967 46.024 188.283 44.616C185.643 43.164 183.531 41.162 181.947 38.61C180.407 36.014 179.637 33.022 179.637 29.634C179.637 26.158 180.429 23.144 182.013 20.592C183.597 18.04 185.731 16.06 188.415 14.652C191.143 13.2 194.223 12.474 197.655 12.474C201.439 12.474 204.475 13.244 206.763 14.784C209.095 16.28 210.789 18.326 211.845 20.922C212.901 23.518 213.429 26.422 213.429 29.634C213.429 31.57 213.121 33.55 212.505 35.574C211.889 37.554 210.943 39.402 209.667 41.118C208.391 42.79 206.719 44.154 204.651 45.21C202.583 46.222 200.097 46.728 197.193 46.728ZM199.965 40.128C202.561 40.128 204.805 39.688 206.697 38.808C208.589 37.928 210.041 36.696 211.053 35.112C212.065 33.528 212.571 31.702 212.571 29.634C212.571 27.39 212.043 25.498 210.987 23.958C209.975 22.374 208.523 21.186 206.631 20.394C204.783 19.558 202.561 19.14 199.965 19.14C196.313 19.14 193.475 20.108 191.451 22.044C189.427 23.936 188.415 26.466 188.415 29.634C188.415 31.746 188.899 33.594 189.867 35.178C190.835 36.718 192.177 37.928 193.893 38.808C195.653 39.688 197.677 40.128 199.965 40.128ZM212.571 13.2H221.151V46.002H213.165C213.165 46.002 213.099 45.584 212.967 44.748C212.879 43.868 212.791 42.768 212.703 41.448C212.615 40.128 212.571 38.83 212.571 37.554V13.2ZM228.916 13.2H237.496V46.002H228.916V13.2ZM252.742 12.474C254.766 12.474 256.636 12.738 258.352 13.266C260.068 13.794 261.564 14.608 262.84 15.708C264.116 16.808 265.106 18.216 265.81 19.932C266.514 21.604 266.866 23.606 266.866 25.938V46.002H258.286V27.456C258.286 24.684 257.604 22.66 256.24 21.384C254.92 20.064 252.742 19.404 249.706 19.404C247.418 19.404 245.35 19.844 243.502 20.724C241.654 21.604 240.158 22.726 239.014 24.09C237.87 25.41 237.21 26.796 237.034 28.248L236.968 24.882C237.188 23.342 237.694 21.846 238.486 20.394C239.278 18.942 240.334 17.622 241.654 16.434C243.018 15.202 244.624 14.234 246.472 13.53C248.32 12.826 250.41 12.474 252.742 12.474ZM330.924 27.126V3.29995H339.702V28.05C339.702 30.866 339.284 33.33 338.448 35.442C337.656 37.554 336.512 39.336 335.016 40.788C333.52 42.24 331.76 43.428 329.736 44.352C327.756 45.232 325.578 45.87 323.202 46.266C320.87 46.662 318.406 46.86 315.81 46.86C313.126 46.86 310.574 46.662 308.154 46.266C305.734 45.87 303.512 45.232 301.488 44.352C299.508 43.428 297.792 42.24 296.34 40.788C294.888 39.336 293.744 37.554 292.908 35.442C292.116 33.33 291.72 30.866 291.72 28.05V3.29995H300.498V27.126C300.498 30.47 301.158 33.022 302.478 34.782C303.798 36.498 305.602 37.686 307.89 38.346C310.222 38.962 312.862 39.27 315.81 39.27C318.67 39.27 321.222 38.962 323.466 38.346C325.754 37.686 327.558 36.498 328.878 34.782C330.242 33.022 330.924 30.47 330.924 27.126ZM382.339 3.29995H393.031L372.835 26.862L372.571 27.126L357.589 46.002H346.897L367.687 21.252L367.885 21.054L382.339 3.29995ZM358.249 3.29995L372.505 21.186L372.637 21.384L393.229 46.002H382.075L367.291 26.862L367.093 26.73L347.557 3.29995H358.249Z" fill="white"/>
</svg>
